<svg xmlns="http://www.w3.org/2000/svg" width="114" height="114" viewBox="0 0 114 114" fill="none">
  <path d="M65.2144 66.2889L52.7884 39.4239L88.8556 20.3532L65.2144 66.2889ZM22.4622 37.7277L24.4573 44.2193L13.9619 49.3335L22.4622 37.7277ZM81.9745 36.4388L92.1353 36.1612L71.7556 56.3097L81.9745 36.4399V36.4388ZM44.1919 52.4389L34.1082 71.3619L23.8303 37.925L44.1919 52.4389ZM71.6628 83.2601L34.8661 72.5853L51.9408 40.5618L71.6628 83.259V83.2601ZM75.506 76L99.5484 80.5441L89.4636 85.1527L75.506 76ZM68.1646 72.6676L100.086 93.6172L73.2904 83.7488L68.1689 72.676L68.1646 72.6676Z" fill="#929FE5"/>
</svg>